<mxfile host="Electron" agent="Mozilla/5.0 (Windows NT 10.0; Win64; x64) AppleWebKit/537.36 (KHTML, like Gecko) draw.io/28.2.5 Chrome/138.0.7204.251 Electron/37.6.1 Safari/537.36" version="28.2.5">
  <diagram name="Page-1" id="Z6euC-GC6ZMElodOfMUQ">
    <mxGraphModel dx="1603" dy="963" grid="1" gridSize="10" guides="1" tooltips="1" connect="1" arrows="1" fold="1" page="1" pageScale="1" pageWidth="1100" pageHeight="850" math="0" shadow="0">
      <root>
        <mxCell id="0" />
        <mxCell id="1" parent="0" />
        <mxCell id="SAwfPRg_TsU69AdCzOoT-14" value="&lt;span style=&quot;font-size: 14px;&quot;&gt;клијент&lt;/span&gt;" style="shape=umlActor;verticalLabelPosition=bottom;verticalAlign=top;html=1;outlineConnect=0;" vertex="1" parent="1">
          <mxGeometry x="130" y="545" width="30" height="60" as="geometry" />
        </mxCell>
        <mxCell id="SAwfPRg_TsU69AdCzOoT-31" value="&lt;font style=&quot;font-size: 14px;&quot;&gt;клијентски налог&lt;/font&gt;" style="shape=folder;fontStyle=1;tabWidth=140;tabHeight=20;tabPosition=left;html=1;boundedLbl=1;labelInHeader=1;container=1;collapsible=0;whiteSpace=wrap;" vertex="1" parent="1">
          <mxGeometry x="400" y="20" width="710" height="350" as="geometry" />
        </mxCell>
        <mxCell id="SAwfPRg_TsU69AdCzOoT-32" value="" style="html=1;strokeColor=none;resizeWidth=1;resizeHeight=1;fillColor=none;part=1;connectable=0;allowArrows=0;deletable=0;whiteSpace=wrap;" vertex="1" parent="SAwfPRg_TsU69AdCzOoT-31">
          <mxGeometry width="709.9999999999999" height="319.99999999999994" relative="1" as="geometry">
            <mxPoint y="30" as="offset" />
          </mxGeometry>
        </mxCell>
        <mxCell id="SAwfPRg_TsU69AdCzOoT-28" value="&lt;font style=&quot;font-size: 14px;&quot;&gt;преглед сопственог профила&lt;/font&gt;" style="ellipse;whiteSpace=wrap;html=1;" vertex="1" parent="SAwfPRg_TsU69AdCzOoT-31">
          <mxGeometry x="52.00506849315068" y="60.0025641025641" width="207.135205479452" height="70" as="geometry" />
        </mxCell>
        <mxCell id="SAwfPRg_TsU69AdCzOoT-25" value="&lt;font style=&quot;font-size: 14px;&quot;&gt;ажурирање сопственог профила&lt;/font&gt;" style="ellipse;whiteSpace=wrap;html=1;" vertex="1" parent="SAwfPRg_TsU69AdCzOoT-31">
          <mxGeometry x="38.82630136986301" y="166.41128205128206" width="233.50246575342462" height="70" as="geometry" />
        </mxCell>
        <mxCell id="SAwfPRg_TsU69AdCzOoT-24" value="&lt;font style=&quot;font-size: 14px;&quot;&gt;повезивање са Google налогом (&lt;i&gt;Google Sign-In)&lt;/i&gt;&lt;/font&gt;" style="ellipse;whiteSpace=wrap;html=1;" vertex="1" parent="SAwfPRg_TsU69AdCzOoT-31">
          <mxGeometry x="311.2328767123287" y="60.0025641025641" width="329.926301369863" height="70" as="geometry" />
        </mxCell>
        <mxCell id="SAwfPRg_TsU69AdCzOoT-26" value="&lt;font style=&quot;font-size: 14px;&quot;&gt;преглед сопствених остављених рецензија&lt;/font&gt;" style="ellipse;whiteSpace=wrap;html=1;" vertex="1" parent="SAwfPRg_TsU69AdCzOoT-31">
          <mxGeometry x="325.4428767123287" y="170.0010256410257" width="301.50684931506845" height="62.82051282051282" as="geometry" />
        </mxCell>
        <mxCell id="SAwfPRg_TsU69AdCzOoT-27" value="&lt;font style=&quot;font-size: 14px;&quot;&gt;одјава&lt;/font&gt;" style="ellipse;whiteSpace=wrap;html=1;" vertex="1" parent="SAwfPRg_TsU69AdCzOoT-31">
          <mxGeometry x="97.15" y="270" width="116.85" height="50" as="geometry" />
        </mxCell>
        <mxCell id="SAwfPRg_TsU69AdCzOoT-43" value="&amp;lt;&amp;lt;extend&amp;gt;&amp;gt;" style="html=1;verticalAlign=bottom;labelBackgroundColor=none;endArrow=open;endFill=0;dashed=1;rounded=0;exitX=0;exitY=1;exitDx=0;exitDy=0;entryX=1;entryY=0;entryDx=0;entryDy=0;" edge="1" parent="SAwfPRg_TsU69AdCzOoT-31" source="SAwfPRg_TsU69AdCzOoT-24" target="SAwfPRg_TsU69AdCzOoT-25">
          <mxGeometry x="0.0668" y="-11" width="160" relative="1" as="geometry">
            <mxPoint x="200" y="190" as="sourcePoint" />
            <mxPoint x="360" y="190" as="targetPoint" />
            <mxPoint as="offset" />
          </mxGeometry>
        </mxCell>
        <mxCell id="SAwfPRg_TsU69AdCzOoT-33" value="&lt;font style=&quot;font-size: 14px;&quot;&gt;фризерски салони&lt;/font&gt;" style="shape=folder;fontStyle=1;tabWidth=160;tabHeight=20;tabPosition=left;html=1;boundedLbl=1;labelInHeader=1;container=1;collapsible=0;whiteSpace=wrap;" vertex="1" parent="1">
          <mxGeometry x="400" y="400" width="710" height="350" as="geometry" />
        </mxCell>
        <mxCell id="SAwfPRg_TsU69AdCzOoT-34" value="" style="html=1;strokeColor=none;resizeWidth=1;resizeHeight=1;fillColor=none;part=1;connectable=0;allowArrows=0;deletable=0;whiteSpace=wrap;" vertex="1" parent="SAwfPRg_TsU69AdCzOoT-33">
          <mxGeometry width="710" height="320" relative="1" as="geometry">
            <mxPoint y="30" as="offset" />
          </mxGeometry>
        </mxCell>
        <mxCell id="SAwfPRg_TsU69AdCzOoT-20" value="&lt;font style=&quot;font-size: 14px;&quot;&gt;оцењивање фризерског салона&lt;/font&gt;" style="ellipse;whiteSpace=wrap;html=1;" vertex="1" parent="SAwfPRg_TsU69AdCzOoT-33">
          <mxGeometry x="407.5" y="200" width="250" height="70" as="geometry" />
        </mxCell>
        <mxCell id="SAwfPRg_TsU69AdCzOoT-21" value="&lt;font style=&quot;font-size: 14px;&quot;&gt;преглед рецензија фризерског салона&lt;/font&gt;" style="ellipse;whiteSpace=wrap;html=1;" vertex="1" parent="SAwfPRg_TsU69AdCzOoT-33">
          <mxGeometry x="390" y="80" width="285" height="70" as="geometry" />
        </mxCell>
        <mxCell id="SAwfPRg_TsU69AdCzOoT-22" value="&lt;font style=&quot;font-size: 14px;&quot;&gt;претрага и сортирање фризерских салона&lt;/font&gt;" style="ellipse;whiteSpace=wrap;html=1;" vertex="1" parent="SAwfPRg_TsU69AdCzOoT-33">
          <mxGeometry x="30" y="80" width="315" height="70" as="geometry" />
        </mxCell>
        <mxCell id="SAwfPRg_TsU69AdCzOoT-23" value="&lt;font style=&quot;font-size: 14px;&quot;&gt;преглед профила фризерског салона&lt;/font&gt;" style="ellipse;whiteSpace=wrap;html=1;" vertex="1" parent="SAwfPRg_TsU69AdCzOoT-33">
          <mxGeometry x="50" y="200" width="275" height="70" as="geometry" />
        </mxCell>
        <mxCell id="SAwfPRg_TsU69AdCzOoT-47" value="&amp;lt;&amp;lt;extend&amp;gt;&amp;gt;" style="html=1;verticalAlign=bottom;labelBackgroundColor=none;endArrow=open;endFill=0;dashed=1;rounded=0;exitX=0.5;exitY=0;exitDx=0;exitDy=0;entryX=0.5;entryY=1;entryDx=0;entryDy=0;" edge="1" parent="SAwfPRg_TsU69AdCzOoT-33" source="SAwfPRg_TsU69AdCzOoT-23" target="SAwfPRg_TsU69AdCzOoT-22">
          <mxGeometry x="-0.2" y="38" width="160" relative="1" as="geometry">
            <mxPoint x="140" y="230" as="sourcePoint" />
            <mxPoint x="300" y="230" as="targetPoint" />
            <mxPoint as="offset" />
          </mxGeometry>
        </mxCell>
        <mxCell id="SAwfPRg_TsU69AdCzOoT-48" value="&amp;lt;&amp;lt;extend&amp;gt;&amp;gt;" style="html=1;verticalAlign=bottom;labelBackgroundColor=none;endArrow=open;endFill=0;dashed=1;rounded=0;exitX=0;exitY=0.5;exitDx=0;exitDy=0;entryX=1;entryY=0.5;entryDx=0;entryDy=0;" edge="1" parent="SAwfPRg_TsU69AdCzOoT-33" source="SAwfPRg_TsU69AdCzOoT-20" target="SAwfPRg_TsU69AdCzOoT-23">
          <mxGeometry width="160" relative="1" as="geometry">
            <mxPoint x="270" y="140" as="sourcePoint" />
            <mxPoint x="430" y="140" as="targetPoint" />
          </mxGeometry>
        </mxCell>
        <mxCell id="SAwfPRg_TsU69AdCzOoT-49" value="&amp;lt;&amp;lt;extend&amp;gt;&amp;gt;" style="html=1;verticalAlign=bottom;labelBackgroundColor=none;endArrow=open;endFill=0;dashed=1;rounded=0;entryX=1;entryY=0;entryDx=0;entryDy=0;exitX=0;exitY=1;exitDx=0;exitDy=0;" edge="1" parent="SAwfPRg_TsU69AdCzOoT-33" source="SAwfPRg_TsU69AdCzOoT-21" target="SAwfPRg_TsU69AdCzOoT-23">
          <mxGeometry x="0.1743" y="-12" width="160" relative="1" as="geometry">
            <mxPoint x="270" y="140" as="sourcePoint" />
            <mxPoint x="430" y="140" as="targetPoint" />
            <mxPoint as="offset" />
          </mxGeometry>
        </mxCell>
        <mxCell id="SAwfPRg_TsU69AdCzOoT-35" value="&lt;font style=&quot;font-size: 14px;&quot;&gt;резервације&lt;/font&gt;" style="shape=folder;fontStyle=1;tabWidth=110;tabHeight=30;tabPosition=left;html=1;boundedLbl=1;labelInHeader=1;container=1;collapsible=0;whiteSpace=wrap;" vertex="1" parent="1">
          <mxGeometry x="400" y="770" width="710" height="350" as="geometry" />
        </mxCell>
        <mxCell id="SAwfPRg_TsU69AdCzOoT-36" value="" style="html=1;strokeColor=none;resizeWidth=1;resizeHeight=1;fillColor=none;part=1;connectable=0;allowArrows=0;deletable=0;whiteSpace=wrap;" vertex="1" parent="SAwfPRg_TsU69AdCzOoT-35">
          <mxGeometry width="710" height="320" relative="1" as="geometry">
            <mxPoint y="30" as="offset" />
          </mxGeometry>
        </mxCell>
        <mxCell id="SAwfPRg_TsU69AdCzOoT-15" value="&lt;font style=&quot;font-size: 14px;&quot;&gt;преглед прихваћених резервација&lt;/font&gt;" style="ellipse;whiteSpace=wrap;html=1;" vertex="1" parent="SAwfPRg_TsU69AdCzOoT-35">
          <mxGeometry x="370" y="60" width="250" height="70" as="geometry" />
        </mxCell>
        <mxCell id="SAwfPRg_TsU69AdCzOoT-16" value="&lt;font style=&quot;font-size: 14px;&quot;&gt;преглед нерешених резервација&lt;/font&gt;" style="ellipse;whiteSpace=wrap;html=1;" vertex="1" parent="SAwfPRg_TsU69AdCzOoT-35">
          <mxGeometry x="45" y="170" width="240" height="70" as="geometry" />
        </mxCell>
        <mxCell id="SAwfPRg_TsU69AdCzOoT-17" value="&lt;font style=&quot;font-size: 14px;&quot;&gt;преглед одбијених резервација&lt;/font&gt;" style="ellipse;whiteSpace=wrap;html=1;" vertex="1" parent="SAwfPRg_TsU69AdCzOoT-35">
          <mxGeometry x="380" y="170" width="230" height="70" as="geometry" />
        </mxCell>
        <mxCell id="SAwfPRg_TsU69AdCzOoT-18" value="&lt;font style=&quot;font-size: 14px;&quot;&gt;преглед прошлих резервација&lt;/font&gt;" style="ellipse;whiteSpace=wrap;html=1;" vertex="1" parent="SAwfPRg_TsU69AdCzOoT-35">
          <mxGeometry x="220" y="260" width="230" height="70" as="geometry" />
        </mxCell>
        <mxCell id="SAwfPRg_TsU69AdCzOoT-19" value="&lt;font style=&quot;font-size: 14px;&quot;&gt;креирање резервације&lt;/font&gt;" style="ellipse;whiteSpace=wrap;html=1;" vertex="1" parent="SAwfPRg_TsU69AdCzOoT-35">
          <mxGeometry x="70" y="60" width="190" height="70" as="geometry" />
        </mxCell>
        <mxCell id="SAwfPRg_TsU69AdCzOoT-38" value="" style="endArrow=none;startArrow=none;endFill=0;startFill=0;endSize=8;html=1;verticalAlign=bottom;labelBackgroundColor=none;strokeWidth=3;rounded=0;entryX=0;entryY=0.5;entryDx=0;entryDy=0;" edge="1" parent="1" target="SAwfPRg_TsU69AdCzOoT-28">
          <mxGeometry width="160" relative="1" as="geometry">
            <mxPoint x="120" y="520" as="sourcePoint" />
            <mxPoint x="360" y="120" as="targetPoint" />
            <Array as="points">
              <mxPoint x="120" y="120" />
            </Array>
          </mxGeometry>
        </mxCell>
        <mxCell id="SAwfPRg_TsU69AdCzOoT-39" value="" style="endArrow=none;startArrow=none;endFill=0;startFill=0;endSize=8;html=1;verticalAlign=bottom;labelBackgroundColor=none;strokeWidth=3;rounded=0;entryX=0;entryY=0.5;entryDx=0;entryDy=0;" edge="1" parent="1" target="SAwfPRg_TsU69AdCzOoT-25">
          <mxGeometry width="160" relative="1" as="geometry">
            <mxPoint x="140" y="520" as="sourcePoint" />
            <mxPoint x="340" y="220" as="targetPoint" />
            <Array as="points">
              <mxPoint x="140" y="220" />
            </Array>
          </mxGeometry>
        </mxCell>
        <mxCell id="SAwfPRg_TsU69AdCzOoT-41" value="" style="endArrow=none;startArrow=none;endFill=0;startFill=0;endSize=8;html=1;verticalAlign=bottom;labelBackgroundColor=none;strokeWidth=3;rounded=0;entryX=0;entryY=0.5;entryDx=0;entryDy=0;" edge="1" parent="1" target="SAwfPRg_TsU69AdCzOoT-27">
          <mxGeometry width="160" relative="1" as="geometry">
            <mxPoint x="160" y="520" as="sourcePoint" />
            <mxPoint x="290" y="320" as="targetPoint" />
            <Array as="points">
              <mxPoint x="160" y="320" />
            </Array>
          </mxGeometry>
        </mxCell>
        <mxCell id="SAwfPRg_TsU69AdCzOoT-45" value="" style="endArrow=none;startArrow=none;endFill=0;startFill=0;endSize=8;html=1;verticalAlign=bottom;labelBackgroundColor=none;strokeWidth=3;rounded=0;entryX=0.5;entryY=1;entryDx=0;entryDy=0;" edge="1" parent="1" target="SAwfPRg_TsU69AdCzOoT-26">
          <mxGeometry width="160" relative="1" as="geometry">
            <mxPoint x="180" y="520" as="sourcePoint" />
            <mxPoint x="270" y="360" as="targetPoint" />
            <Array as="points">
              <mxPoint x="180" y="360" />
              <mxPoint x="876" y="350" />
            </Array>
          </mxGeometry>
        </mxCell>
        <mxCell id="SAwfPRg_TsU69AdCzOoT-46" value="" style="endArrow=none;startArrow=none;endFill=0;startFill=0;endSize=8;html=1;verticalAlign=bottom;labelBackgroundColor=none;strokeWidth=3;rounded=0;entryX=0;entryY=0.5;entryDx=0;entryDy=0;" edge="1" parent="1" target="SAwfPRg_TsU69AdCzOoT-22">
          <mxGeometry width="160" relative="1" as="geometry">
            <mxPoint x="190" y="540" as="sourcePoint" />
            <mxPoint x="720" y="470" as="targetPoint" />
          </mxGeometry>
        </mxCell>
        <mxCell id="SAwfPRg_TsU69AdCzOoT-50" value="&amp;lt;&amp;lt;extend&amp;gt;&amp;gt;" style="html=1;verticalAlign=bottom;labelBackgroundColor=none;endArrow=open;endFill=0;dashed=1;rounded=0;exitX=0.5;exitY=0;exitDx=0;exitDy=0;entryX=0.5;entryY=1;entryDx=0;entryDy=0;" edge="1" parent="1" source="SAwfPRg_TsU69AdCzOoT-19" target="SAwfPRg_TsU69AdCzOoT-23">
          <mxGeometry x="-0.0625" y="36" width="160" relative="1" as="geometry">
            <mxPoint x="590" y="760" as="sourcePoint" />
            <mxPoint x="750" y="760" as="targetPoint" />
            <mxPoint as="offset" />
          </mxGeometry>
        </mxCell>
        <mxCell id="SAwfPRg_TsU69AdCzOoT-52" value="" style="endArrow=none;startArrow=none;endFill=0;startFill=0;endSize=8;html=1;verticalAlign=bottom;labelBackgroundColor=none;strokeWidth=3;rounded=0;entryX=0;entryY=0.5;entryDx=0;entryDy=0;" edge="1" parent="1" target="SAwfPRg_TsU69AdCzOoT-18">
          <mxGeometry width="160" relative="1" as="geometry">
            <mxPoint x="120" y="640" as="sourcePoint" />
            <mxPoint x="280" y="1060" as="targetPoint" />
            <Array as="points">
              <mxPoint x="120" y="1070" />
            </Array>
          </mxGeometry>
        </mxCell>
        <mxCell id="SAwfPRg_TsU69AdCzOoT-53" value="" style="endArrow=none;startArrow=none;endFill=0;startFill=0;endSize=8;html=1;verticalAlign=bottom;labelBackgroundColor=none;strokeWidth=3;rounded=0;entryX=0.5;entryY=1;entryDx=0;entryDy=0;" edge="1" parent="1" target="SAwfPRg_TsU69AdCzOoT-15">
          <mxGeometry width="160" relative="1" as="geometry">
            <mxPoint x="180" y="640" as="sourcePoint" />
            <mxPoint x="390" y="900" as="targetPoint" />
            <Array as="points">
              <mxPoint x="180" y="920" />
              <mxPoint x="895" y="920" />
            </Array>
          </mxGeometry>
        </mxCell>
        <mxCell id="SAwfPRg_TsU69AdCzOoT-54" value="" style="endArrow=none;startArrow=none;endFill=0;startFill=0;endSize=8;html=1;verticalAlign=bottom;labelBackgroundColor=none;strokeWidth=3;rounded=0;entryX=0;entryY=0.5;entryDx=0;entryDy=0;" edge="1" parent="1" target="SAwfPRg_TsU69AdCzOoT-16">
          <mxGeometry width="160" relative="1" as="geometry">
            <mxPoint x="160" y="640" as="sourcePoint" />
            <mxPoint x="340" y="910" as="targetPoint" />
            <Array as="points">
              <mxPoint x="160" y="975" />
            </Array>
          </mxGeometry>
        </mxCell>
        <mxCell id="SAwfPRg_TsU69AdCzOoT-55" value="" style="endArrow=none;startArrow=none;endFill=0;startFill=0;endSize=8;html=1;verticalAlign=bottom;labelBackgroundColor=none;strokeWidth=3;rounded=0;entryX=0.5;entryY=1;entryDx=0;entryDy=0;" edge="1" parent="1" target="SAwfPRg_TsU69AdCzOoT-17">
          <mxGeometry width="160" relative="1" as="geometry">
            <mxPoint x="140" y="640" as="sourcePoint" />
            <mxPoint x="220" y="1030" as="targetPoint" />
            <Array as="points">
              <mxPoint x="140" y="1030" />
              <mxPoint x="895" y="1020" />
            </Array>
          </mxGeometry>
        </mxCell>
        <mxCell id="SAwfPRg_TsU69AdCzOoT-56" value="&amp;lt;&amp;lt;extend&amp;gt;&amp;gt;" style="html=1;verticalAlign=bottom;labelBackgroundColor=none;endArrow=open;endFill=0;dashed=1;rounded=0;exitX=0.941;exitY=0.748;exitDx=0;exitDy=0;exitPerimeter=0;entryX=0.5;entryY=0;entryDx=0;entryDy=0;" edge="1" parent="1" source="SAwfPRg_TsU69AdCzOoT-23" target="SAwfPRg_TsU69AdCzOoT-15">
          <mxGeometry x="0.1517" y="20" width="160" relative="1" as="geometry">
            <mxPoint x="750" y="740" as="sourcePoint" />
            <mxPoint x="910" y="740" as="targetPoint" />
            <mxPoint as="offset" />
          </mxGeometry>
        </mxCell>
        <mxCell id="SAwfPRg_TsU69AdCzOoT-57" value="&amp;lt;&amp;lt;extend&amp;gt;&amp;gt;" style="html=1;verticalAlign=bottom;labelBackgroundColor=none;endArrow=open;endFill=0;dashed=1;rounded=0;exitX=0.892;exitY=0.821;exitDx=0;exitDy=0;exitPerimeter=0;entryX=0.5;entryY=0;entryDx=0;entryDy=0;" edge="1" parent="1" source="SAwfPRg_TsU69AdCzOoT-23" target="SAwfPRg_TsU69AdCzOoT-17">
          <mxGeometry x="-0.1406" y="35" width="160" relative="1" as="geometry">
            <mxPoint x="710" y="820" as="sourcePoint" />
            <mxPoint x="870" y="820" as="targetPoint" />
            <Array as="points">
              <mxPoint x="720" y="860" />
            </Array>
            <mxPoint as="offset" />
          </mxGeometry>
        </mxCell>
        <mxCell id="SAwfPRg_TsU69AdCzOoT-58" value="&amp;lt;&amp;lt;extend&amp;gt;&amp;gt;" style="html=1;verticalAlign=bottom;labelBackgroundColor=none;endArrow=open;endFill=0;dashed=1;rounded=0;exitX=0.813;exitY=0.907;exitDx=0;exitDy=0;exitPerimeter=0;entryX=1;entryY=0;entryDx=0;entryDy=0;" edge="1" parent="1" source="SAwfPRg_TsU69AdCzOoT-23" target="SAwfPRg_TsU69AdCzOoT-16">
          <mxGeometry x="0.0881" y="-35" width="160" relative="1" as="geometry">
            <mxPoint x="570" y="790" as="sourcePoint" />
            <mxPoint x="730" y="790" as="targetPoint" />
            <Array as="points">
              <mxPoint x="700" y="860" />
            </Array>
            <mxPoint as="offset" />
          </mxGeometry>
        </mxCell>
        <mxCell id="SAwfPRg_TsU69AdCzOoT-59" value="&amp;lt;&amp;lt;extend&amp;gt;&amp;gt;" style="html=1;verticalAlign=bottom;labelBackgroundColor=none;endArrow=open;endFill=0;dashed=1;rounded=0;exitX=0.98;exitY=0.614;exitDx=0;exitDy=0;exitPerimeter=0;entryX=1;entryY=0.5;entryDx=0;entryDy=0;" edge="1" parent="1" source="SAwfPRg_TsU69AdCzOoT-23" target="SAwfPRg_TsU69AdCzOoT-18">
          <mxGeometry x="0.6145" width="160" relative="1" as="geometry">
            <mxPoint x="580" y="770" as="sourcePoint" />
            <mxPoint x="740" y="770" as="targetPoint" />
            <Array as="points">
              <mxPoint x="1080" y="740" />
              <mxPoint x="1070" y="1065" />
            </Array>
            <mxPoint as="offset" />
          </mxGeometry>
        </mxCell>
      </root>
    </mxGraphModel>
  </diagram>
</mxfile>
